<svg width="33" height="32" viewBox="0 0 33 32" fill="none" xmlns="http://www.w3.org/2000/svg">
    <mask id="mask0_1_14790" style="mask-type:alpha" maskUnits="userSpaceOnUse" x="0" y="0" width="33" height="32">
        <path fill-rule="evenodd" clip-rule="evenodd" d="M25.7333 24C25.7333 24.736 25.136 25.3333 24.4 25.3333C23.664 25.3333 23.0667 24.736 23.0667 24C23.0667 23.264 23.664 22.6667 24.4 22.6667C25.136 22.6667 25.7333 23.264 25.7333 24ZM16.4 20H5.73332L5.75466 6.66667H20.4L20.3787 20H16.4ZM9.73332 24C9.73332 24.736 9.13599 25.3333 8.39999 25.3333C7.66399 25.3333 7.06666 24.736 7.06666 24C7.06666 23.264 7.66399 22.6667 8.39999 22.6667C9.13599 22.6667 9.73332 23.264 9.73332 24ZM27.0667 16.64V20H23.0667V13.4413L27.0667 16.64ZM29.2333 14.9587L23.0667 10.0253V6.66667C23.0667 5.196 21.9827 4 20.6493 4H5.48266C4.15066 4 3.06666 5.196 3.06666 6.66667V20C3.06666 21.164 3.75066 22.1453 4.69466 22.5093C4.50799 22.9707 4.39999 23.472 4.39999 24C4.39999 26.2053 6.19466 28 8.39999 28C10.6053 28 12.4 26.2053 12.4 24C12.4 23.5293 12.304 23.0853 12.1533 22.6667H16.4H20.6467C20.496 23.0853 20.4 23.5293 20.4 24C20.4 26.2053 22.1947 28 24.4 28C26.6053 28 28.4 26.2053 28.4 24C28.4 23.5293 28.304 23.0853 28.1533 22.6667H28.4C29.1373 22.6667 29.7333 22.0707 29.7333 21.3333V16C29.7333 15.5947 29.5493 15.212 29.2333 14.9587Z" fill="#071435"/>
    </mask>
    <g mask="url(#mask0_1_14790)">
        <rect width="32" height="32" transform="translate(0.399994)" fill="#B3B7BC"/>
    </g>
</svg>
