<svg width="16" height="16" viewBox="0 0 16 16" fill="none" xmlns="http://www.w3.org/2000/svg">
    <mask id="mask0_1_13348" style="mask-type:alpha" maskUnits="userSpaceOnUse" x="0" y="0" width="16" height="16">
        <path d="M8.00033 1.33331C11.6822 1.33349 14.6663 4.31841 14.6663 8.00031C14.6662 11.682 11.6821 14.6661 8.00033 14.6663C4.31844 14.6663 1.33351 11.6822 1.33334 8.00031C1.33334 4.31831 4.31833 1.33331 8.00033 1.33331ZM8.00033 2.66632C5.05966 2.66632 2.66634 5.05964 2.66634 8.00031C2.66652 10.9408 5.05977 13.3333 8.00033 13.3333C10.9407 13.3331 13.3332 10.9407 13.3333 8.00031C13.3333 5.05975 10.9408 2.6665 8.00033 2.66632ZM8.00033 10.0003C8.36818 10.0005 8.66732 10.2994 8.66732 10.6673C8.66697 11.0349 8.36796 11.3331 8.00033 11.3333C7.63254 11.3333 7.33369 11.035 7.33334 10.6673C7.33334 10.2993 7.63233 10.0003 8.00033 10.0003ZM8.00033 4.6673C8.36807 4.66747 8.66714 4.96557 8.66732 5.33331V8.6673C8.66697 9.03489 8.36796 9.33314 8.00033 9.33331C7.63255 9.33331 7.33369 9.035 7.33334 8.6673V5.33331C7.33351 4.96546 7.63244 4.6673 8.00033 4.6673Z" fill="#071435"/>
    </mask>
    <g mask="url(#mask0_1_13348)">
        <rect width="16" height="16" fill="#B3B7BC"/>
    </g>
</svg>
